<svg width="64" height="64" fill="none" xmlns="http://www.w3.org/2000/svg"><path d="M12.22 44.111a16 16 0 016.445-6.777L25 39l1.666 6.334a15.999 15.999 0 01-16 8 16 16 0 011.555-9.223z" fill="#FFE600"/><path d="M10.667 34.666a21.333 21.333 0 0118.667 18.667 16.001 16.001 0 008-13.334 23.999 23.999 0 0016-21.333 8 8 0 00-8-8 24 24 0 00-21.334 16 16 16 0 00-13.333 8z" fill="url(#paint0_linear)"/><path d="M40 26.667a2.667 2.667 0 100-5.333 2.667 2.667 0 000 5.333z" fill="#FFE600"/><defs><linearGradient id="paint0_linear" x1="32" y1="10.666" x2="32" y2="53.333" gradientUnits="userSpaceOnUse"><stop stop-color="#FFA800"/><stop offset="1" stop-color="#E8724C"/></linearGradient></defs></svg>