<svg width="64" height="64" fill="none" xmlns="http://www.w3.org/2000/svg"><path opacity=".9" d="M53.427 10.571c-2.273-2.273-6.711-2.195-12.337.216-5.626 2.41-11.98 6.958-17.663 12.641-5.683 5.684-10.23 12.037-12.642 17.663-2.41 5.626-2.488 10.064-.215 12.337 2.273 2.274 6.711 2.196 12.337-.215 5.626-2.411 11.98-6.959 17.663-12.642 2.814-2.814 5.379-5.822 7.548-8.853 2.169-3.03 3.9-6.024 5.093-8.81 1.194-2.785 1.828-5.309 1.865-7.425.037-2.117-.524-3.786-1.65-4.912z" fill="url(#paint0_linear)"/><path opacity=".9" d="M10.571 10.571c-2.273 2.274-2.195 6.711.216 12.337 2.41 5.626 6.958 11.98 12.641 17.663 5.684 5.683 12.037 10.23 17.663 12.642 5.626 2.41 10.064 2.488 12.337.215 2.274-2.273 2.196-6.711-.215-12.337-2.411-5.626-6.959-11.98-12.642-17.663-2.814-2.814-5.822-5.379-8.853-7.548-3.03-2.169-6.024-3.9-8.81-5.093-2.785-1.194-5.309-1.828-7.425-1.865-2.117-.037-3.786.524-4.912 1.65z" fill="url(#paint1_linear)"/><circle cx="32" cy="32" r="6" fill="#FFE600"/><defs><linearGradient id="paint0_linear" x1="53.427" y1="10.571" x2="10.57" y2="53.428" gradientUnits="userSpaceOnUse"><stop stop-color="#FFA800"/><stop offset="1" stop-color="#E8724C"/></linearGradient><linearGradient id="paint1_linear" x1="10.571" y1="10.571" x2="53.428" y2="53.428" gradientUnits="userSpaceOnUse"><stop stop-color="#FFA800"/><stop offset="1" stop-color="#E8724C"/></linearGradient></defs></svg>