<svg width="28" height="28" fill="none" xmlns="http://www.w3.org/2000/svg"><path d="M0 14C0 6.268 6.268 0 14 0s14 6.268 14 14-6.268 14-14 14S0 21.732 0 14z" fill="#fff" fill-opacity=".2"/><g filter="url(#filter0_d)"><path d="M14 15a1 1 0 100-2 1 1 0 000 2z" fill="#fff"/><path d="M14 15a1 1 0 100-2 1 1 0 000 2z" stroke="#fff" stroke-width="1.5" stroke-linecap="round" stroke-linejoin="round"/></g><g filter="url(#filter1_d)"><path d="M14 22a1 1 0 100-2 1 1 0 000 2z" fill="#fff"/><path d="M14 22a1 1 0 100-2 1 1 0 000 2z" stroke="#fff" stroke-width="1.5" stroke-linecap="round" stroke-linejoin="round"/></g><g filter="url(#filter2_d)"><path d="M14 8a1 1 0 100-2 1 1 0 000 2z" fill="#fff"/><path d="M14 8a1 1 0 100-2 1 1 0 000 2z" stroke="#fff" stroke-width="1.5" stroke-linecap="round" stroke-linejoin="round"/></g><defs><filter id="filter0_d" x="8.25" y="9.25" width="11.5" height="11.5" filterUnits="userSpaceOnUse" color-interpolation-filters="sRGB"><feFlood flood-opacity="0" result="BackgroundImageFix"/><feColorMatrix in="SourceAlpha" values="0 0 0 0 0 0 0 0 0 0 0 0 0 0 0 0 0 0 127 0"/><feOffset dy="1"/><feGaussianBlur stdDeviation="2"/><feColorMatrix values="0 0 0 0 0 0 0 0 0 0 0 0 0 0 0 0 0 0 0.25 0"/><feBlend in2="BackgroundImageFix" result="effect1_dropShadow"/><feBlend in="SourceGraphic" in2="effect1_dropShadow" result="shape"/></filter><filter id="filter1_d" x="8.25" y="16.25" width="11.5" height="11.5" filterUnits="userSpaceOnUse" color-interpolation-filters="sRGB"><feFlood flood-opacity="0" result="BackgroundImageFix"/><feColorMatrix in="SourceAlpha" values="0 0 0 0 0 0 0 0 0 0 0 0 0 0 0 0 0 0 127 0"/><feOffset dy="1"/><feGaussianBlur stdDeviation="2"/><feColorMatrix values="0 0 0 0 0 0 0 0 0 0 0 0 0 0 0 0 0 0 0.25 0"/><feBlend in2="BackgroundImageFix" result="effect1_dropShadow"/><feBlend in="SourceGraphic" in2="effect1_dropShadow" result="shape"/></filter><filter id="filter2_d" x="8.25" y="2.25" width="11.5" height="11.5" filterUnits="userSpaceOnUse" color-interpolation-filters="sRGB"><feFlood flood-opacity="0" result="BackgroundImageFix"/><feColorMatrix in="SourceAlpha" values="0 0 0 0 0 0 0 0 0 0 0 0 0 0 0 0 0 0 127 0"/><feOffset dy="1"/><feGaussianBlur stdDeviation="2"/><feColorMatrix values="0 0 0 0 0 0 0 0 0 0 0 0 0 0 0 0 0 0 0.25 0"/><feBlend in2="BackgroundImageFix" result="effect1_dropShadow"/><feBlend in="SourceGraphic" in2="effect1_dropShadow" result="shape"/></filter></defs></svg>