<svg width="18" height="16" fill="none" xmlns="http://www.w3.org/2000/svg"><path d="M15.67 8.505L9.008 15 2.344 8.505h13.327zm-13.326 0A4.369 4.369 0 011.327 7.02a4.31 4.31 0 01.094-3.505 4.379 4.379 0 011.095-1.432 4.462 4.462 0 011.586-.878 4.51 4.51 0 013.543.372c.533.299.997.704 1.362 1.188a4.44 4.44 0 011.364-1.178 4.493 4.493 0 013.534-.36c.583.182 1.12.48 1.58.877.46.397.832.882 1.092 1.427a4.316 4.316 0 01-.906 4.98" fill="#E8724C"/><path d="M2.344 8.505A4.369 4.369 0 011.327 7.02a4.31 4.31 0 01.094-3.505 4.379 4.379 0 011.095-1.432 4.462 4.462 0 011.586-.878 4.51 4.51 0 013.543.372c.533.299.997.704 1.362 1.188a4.44 4.44 0 011.364-1.178 4.493 4.493 0 013.534-.36c.583.182 1.12.48 1.58.877.46.397.832.882 1.092 1.427a4.316 4.316 0 01-.906 4.98m0-.005L9.007 15 2.344 8.505h13.327z" stroke="#E8724C" stroke-width="1.5" stroke-linecap="round" stroke-linejoin="round"/></svg>