<svg width="26" height="24" fill="none" xmlns="http://www.w3.org/2000/svg"><g filter="url(#filter0_d)"><path d="M19.67 11.51L13.008 18l-6.663-6.495a4.368 4.368 0 01-1.017-1.486 4.31 4.31 0 01.094-3.505 4.379 4.379 0 011.095-1.432 4.462 4.462 0 011.586-.878 4.51 4.51 0 013.543.372c.533.299.997.704 1.362 1.188a4.44 4.44 0 011.364-1.178 4.493 4.493 0 013.534-.36c.583.182 1.12.48 1.58.877.46.397.832.882 1.092 1.427a4.316 4.316 0 01-.906 4.98z" stroke="#fff" stroke-width="1.5" stroke-linecap="round" stroke-linejoin="round"/></g><defs><filter id="filter0_d" x=".25" y=".25" width="25.5" height="23.5" filterUnits="userSpaceOnUse" color-interpolation-filters="sRGB"><feFlood flood-opacity="0" result="BackgroundImageFix"/><feColorMatrix in="SourceAlpha" values="0 0 0 0 0 0 0 0 0 0 0 0 0 0 0 0 0 0 127 0"/><feOffset dy="1"/><feGaussianBlur stdDeviation="2"/><feColorMatrix values="0 0 0 0 0 0 0 0 0 0 0 0 0 0 0 0 0 0 0.25 0"/><feBlend in2="BackgroundImageFix" result="effect1_dropShadow"/><feBlend in="SourceGraphic" in2="effect1_dropShadow" result="shape"/></filter></defs></svg>