<svg width="60" height="60" fill="none" xmlns="http://www.w3.org/2000/svg"><path d="M1.5 6v52.5" stroke="#013F44" stroke-width="1.5" stroke-linecap="round" stroke-linejoin="round"/><path d="M12.938 1.5A16.286 16.286 0 001.5 6.2v29.6a16.286 16.286 0 0111.438-4.701c4.276 0 8.383 1.687 11.437 4.7A16.285 16.285 0 0035.813 40.5c4.276 0 8.383-1.688 11.437-4.7V6.2a16.286 16.286 0 01-11.438 4.701 16.286 16.286 0 01-11.437-4.7A16.286 16.286 0 0012.937 1.5z" fill="url(#paint0_linear)"/><path d="M12.938 1.5A16.286 16.286 0 001.5 6.2v29.6a16.286 16.286 0 0111.438-4.701c4.276 0 8.383 1.687 11.437 4.7A16.285 16.285 0 0035.813 40.5c4.276 0 8.383-1.688 11.437-4.7V6.2a16.286 16.286 0 01-11.438 4.701 16.286 16.286 0 01-11.437-4.7A16.286 16.286 0 0012.937 1.5z" fill="url(#paint1_linear)" style="mix-blend-mode:soft-light"/><defs><linearGradient id="paint0_linear" x1="1" y1="2" x2="47" y2="2" gradientUnits="userSpaceOnUse"><stop stop-color="#013F44"/><stop offset=".292" stop-color="#077781"/><stop offset=".719" stop-color="#003236"/><stop offset="1" stop-color="#005056"/></linearGradient><linearGradient id="paint1_linear" x1="47" y1="2" x2="2" y2="41" gradientUnits="userSpaceOnUse"><stop stop-color="#fff"/><stop offset="1" stop-color="#fff" stop-opacity="0"/></linearGradient></defs></svg>