<svg width="132" height="44" fill="none" xmlns="http://www.w3.org/2000/svg"><path d="M41.92 17.412c-7.267 0-13.135 5.94-13.135 13.294S34.654 44 41.919 44c7.267 0 13.135-5.94 13.135-13.294S49.186 17.412 41.92 17.412zm0 19.705c-3.51 0-6.335-2.891-6.335-6.411 0-3.552 2.857-6.412 6.334-6.412 3.51 0 6.335 2.892 6.335 6.412s-2.826 6.411-6.334 6.411zM13.104 17.412c-2.298 0-4.472.597-6.335 1.634V3.426C6.77 1.54 5.248 0 3.385 0S0 1.54 0 3.426v27.28C0 38.06 5.869 44 13.135 44S26.27 38.06 26.27 30.706c-.032-7.354-5.9-13.294-13.166-13.294zm0 19.705c-3.51 0-6.335-2.891-6.335-6.411 0-3.552 2.857-6.412 6.335-6.412 3.509 0 6.334 2.892 6.334 6.412s-2.825 6.411-6.334 6.411zM64.4 3.427v37.115c0 1.886-1.522 3.426-3.385 3.426-1.863 0-3.384-1.54-3.384-3.426V3.426C57.632 1.54 59.153 0 61.016 0c1.863-.031 3.385 1.509 3.385 3.426zm45.149 13.985c-7.266 0-13.135 5.94-13.135 13.294S102.284 44 109.55 44s13.135-5.94 13.135-13.294c-.032-7.354-5.9-13.294-13.135-13.294zm0 19.705c-3.509 0-6.335-2.891-6.335-6.411 0-3.552 2.857-6.412 6.335-6.412 3.478 0 6.334 2.892 6.334 6.412s-2.856 6.411-6.334 6.411zM80.734 17.412c-2.298 0-4.471.597-6.335 1.634V3.426C74.4 1.54 72.878 0 71.015 0S67.63 1.54 67.63 3.426v27.28C67.63 38.06 73.5 44 80.765 44S93.9 38.06 93.9 30.706c-.031-7.354-5.931-13.294-13.166-13.294zm0 19.705c-3.509 0-6.335-2.891-6.335-6.411 0-3.552 2.857-6.412 6.335-6.412 3.509 0 6.335 2.892 6.335 6.412s-2.857 6.411-6.335 6.411zM132 3.427v37.115c0 1.886-1.522 3.426-3.385 3.426-1.863 0-3.384-1.54-3.384-3.426V3.426c0-1.886 1.521-3.426 3.384-3.426C130.478-.03 132 1.51 132 3.426z" fill="#FFE600"/></svg>