<svg width="60" height="60" fill="none" xmlns="http://www.w3.org/2000/svg"><path d="M29 39V27" stroke="#013F44" stroke-width="1.5" stroke-linecap="round" stroke-linejoin="round"/><path d="M29 21A18 18 0 0011 3H2v6a18 18 0 0018 18h9" fill="url(#paint0_linear)"/><path d="M29 26.857a18.96 18.96 0 015.467-13.334A18.572 18.572 0 0147.667 8H57v3.143a18.96 18.96 0 01-5.467 13.334A18.572 18.572 0 0138.333 30H29" fill="url(#paint1_linear)"/><path d="M14 39h30v12a6 6 0 01-6 6H20a6 6 0 01-6-6V39z" fill="url(#paint2_linear)"/><defs><linearGradient id="paint0_linear" x1="29" y1="27" x2="5.228" y2=".143" gradientUnits="userSpaceOnUse"><stop stop-color="#013F44"/><stop offset="1" stop-color="#10A0AC"/></linearGradient><linearGradient id="paint1_linear" x1="29" y1="30" x2="57" y2="8" gradientUnits="userSpaceOnUse"><stop stop-color="#013F44"/><stop offset="1" stop-color="#10A0AC"/></linearGradient><linearGradient id="paint2_linear" x1="14" y1="48" x2="44" y2="48" gradientUnits="userSpaceOnUse"><stop stop-color="#013F44"/><stop offset=".359" stop-color="#059AA6"/><stop offset="1" stop-color="#013F44"/></linearGradient></defs></svg>