<svg width="20" height="20" fill="none" xmlns="http://www.w3.org/2000/svg"><g opacity=".5"><path d="M2 10a8 8 0 1016 0 8 8 0 00-16 0z" fill="#013F44"/><path d="M12.406 14.375a.268.268 0 01-.16-.054l-2.317-1.69a.382.382 0 00-.467.013l-1.284 1.052a.27.27 0 01-.43-.13l-.893-2.881-2.303-.864a.272.272 0 01-.13-.41.272.272 0 01.127-.1l9.457-3.667a.268.268 0 01.31.083.269.269 0 01.053.227l-1.697 8.204a.27.27 0 01-.266.217zm-.256-6.95a.08.08 0 00-.043.012l-4.503 2.787a.457.457 0 00-.198.513l.487 1.72a.113.113 0 00.111.085.114.114 0 00.116-.101l.127-.943a.778.778 0 01.24-.463l3.715-3.473a.075.075 0 00.021-.085.08.08 0 00-.073-.052z" fill="#fff"/></g></svg>