<svg width="24" height="24" fill="none" xmlns="http://www.w3.org/2000/svg"><path d="M2.4 12a9.6 9.6 0 1019.2 0 9.6 9.6 0 00-19.2 0z" fill="#013F44"/><path d="M14.887 17.25a.322.322 0 01-.192-.064l-2.78-2.029a.458.458 0 00-.56.016l-1.542 1.263a.324.324 0 01-.517-.157l-1.07-3.457-2.764-1.037a.326.326 0 01-.155-.492.326.326 0 01.152-.12l11.349-4.4a.321.321 0 01.37.1.321.321 0 01.064.272l-2.035 9.844a.325.325 0 01-.32.261zm-.307-8.34a.096.096 0 00-.051.015l-5.404 3.344a.549.549 0 00-.238.615l.584 2.065a.136.136 0 00.134.102.138.138 0 00.14-.122l.151-1.131a.934.934 0 01.288-.556l4.459-4.168a.09.09 0 00.024-.101.096.096 0 00-.087-.063z" fill="#fff"/></svg>