<svg width="40" height="40" fill="none" xmlns="http://www.w3.org/2000/svg"><path d="M24.333 8.333v5H5.999a3.333 3.333 0 010-6.666h16.667a1.667 1.667 0 011.667 1.666z" stroke="url(#paint0_linear)" stroke-width="1.5" stroke-linecap="round" stroke-linejoin="round"/><path d="M2.666 10a3.333 3.333 0 003.333 3.333h20A1.667 1.667 0 0127.666 15v16.667a1.667 1.667 0 01-1.667 1.666H6A3.333 3.333 0 012.666 30V10z" fill="url(#paint1_linear)" stroke="url(#paint2_linear)" stroke-width="1.5" stroke-linecap="round" stroke-linejoin="round"/><path d="M29.334 20v6.667h-6.667a3.333 3.333 0 010-6.667h6.667z" fill="#fff" stroke="#07636A" stroke-width="1.5" stroke-linecap="round" stroke-linejoin="round"/><defs><linearGradient id="paint0_linear" x1="2.666" y1="9.63" x2="24.148" y2="9.63" gradientUnits="userSpaceOnUse"><stop stop-color="#086D75"/><stop offset="1" stop-color="#0D8E98"/></linearGradient><linearGradient id="paint1_linear" x1="2.666" y1="33.333" x2="32.954" y2="15.804" gradientUnits="userSpaceOnUse"><stop stop-color="#013F44"/><stop offset="1" stop-color="#10A0AC"/></linearGradient><linearGradient id="paint2_linear" x1="2.666" y1="33.333" x2="27.851" y2="6.667" gradientUnits="userSpaceOnUse"><stop stop-color="#013F44"/><stop offset="1" stop-color="#10A0AC"/></linearGradient></defs></svg>