<svg width="20" height="20" fill="none" xmlns="http://www.w3.org/2000/svg"><g opacity=".5"><g filter="url(#filter0_d)"><path d="M2.049 17.746l1.133-4.134a7.98 7.98 0 116.915 3.996h-.003a7.973 7.973 0 01-3.813-.971l-4.232 1.109zm4.426-2.554l.242.144a6.625 6.625 0 003.376.924h.002a6.632 6.632 0 10-5.618-3.107l.158.251-.67 2.447 2.51-.659z" fill="#013F44"/></g><path d="M2.048 17.746l1.133-4.134a7.98 7.98 0 116.915 3.996h-.004a7.973 7.973 0 01-3.812-.971l-4.232 1.109zm4.426-2.554l.242.144a6.625 6.625 0 003.376.924h.002a6.631 6.631 0 10-5.618-3.107l.158.251-.67 2.447 2.51-.659z" fill="url(#paint0_linear)"/><path fill-rule="evenodd" clip-rule="evenodd" d="M8.102 6.289c-.15-.333-.307-.339-.449-.344-.116-.005-.25-.005-.382-.005a.733.733 0 00-.532.25 2.235 2.235 0 00-.698 1.662c0 .981.715 1.929.814 2.062.1.133 1.38 2.21 3.406 3.01 1.685.664 2.027.533 2.393.5.366-.034 1.18-.483 1.346-.948.13-.298.17-.628.116-.948-.05-.083-.183-.133-.382-.233-.2-.1-1.18-.582-1.363-.65-.182-.066-.315-.1-.448.1s-.515.65-.631.782c-.117.133-.234.15-.434.05a5.454 5.454 0 01-1.603-.99 6.003 6.003 0 01-1.11-1.38c-.116-.2-.012-.307.088-.407.09-.09.2-.233.3-.349.083-.1.15-.213.2-.333a.367.367 0 00-.016-.35c-.05-.099-.438-1.085-.615-1.479z" fill="#fff"/></g><defs><linearGradient id="paint0_linear" x1="10.062" y1="17.746" x2="10.062" y2="1.647" gradientUnits="userSpaceOnUse"><stop stop-color="#F9F9F9"/><stop offset="1" stop-color="#fff"/></linearGradient><filter id="filter0_d" x="1.049" y=".647" width="18.028" height="18.099" filterUnits="userSpaceOnUse" color-interpolation-filters="sRGB"><feFlood flood-opacity="0" result="BackgroundImageFix"/><feColorMatrix in="SourceAlpha" values="0 0 0 0 0 0 0 0 0 0 0 0 0 0 0 0 0 0 127 0"/><feOffset/><feGaussianBlur stdDeviation=".5"/><feColorMatrix values="0 0 0 0 0 0 0 0 0 0 0 0 0 0 0 0 0 0 0.25 0"/><feBlend in2="BackgroundImageFix" result="effect1_dropShadow"/><feBlend in="SourceGraphic" in2="effect1_dropShadow" result="shape"/></filter></defs></svg>