<svg width="24" height="24" fill="none" xmlns="http://www.w3.org/2000/svg"><g filter="url(#filter0_d)"><path d="M2.458 21.295l1.36-4.96a9.576 9.576 0 118.298 4.794h-.004c-1.599 0-3.172-.4-4.576-1.165l-5.078 1.33zm5.311-3.064l.291.172a7.95 7.95 0 004.05 1.11h.004a7.957 7.957 0 10-6.742-3.73l.19.302-.805 2.936 3.012-.79z" fill="#013F44"/></g><path d="M2.457 21.295l1.36-4.96a9.576 9.576 0 118.298 4.794h-.004c-1.599 0-3.172-.4-4.576-1.165l-5.078 1.33zm5.311-3.064l.291.172a7.95 7.95 0 004.05 1.11h.004a7.957 7.957 0 10-6.742-3.73l.19.302-.805 2.936 3.012-.79z" fill="url(#paint0_linear)"/><path fill-rule="evenodd" clip-rule="evenodd" d="M9.722 7.547c-.18-.4-.368-.407-.539-.413-.14-.006-.299-.006-.458-.006a.88.88 0 00-.638.3 2.682 2.682 0 00-.838 1.994c0 1.178.858 2.315.977 2.475.12.16 1.655 2.652 4.087 3.611 2.022.797 2.433.64 2.872.6.438-.04 1.415-.579 1.614-1.137a1.99 1.99 0 00.14-1.137c-.06-.1-.22-.16-.459-.28-.24-.12-1.415-.699-1.635-.779-.219-.08-.378-.12-.538.12-.16.24-.618.778-.757.938-.14.16-.28.18-.52.06a6.545 6.545 0 01-1.924-1.188 7.202 7.202 0 01-1.331-1.657c-.14-.24-.015-.368.105-.488.107-.107.24-.28.36-.418a1.64 1.64 0 00.24-.4.44.44 0 00-.02-.42c-.06-.119-.525-1.302-.738-1.775z" fill="#fff"/><defs><linearGradient id="paint0_linear" x1="12.074" y1="21.295" x2="12.074" y2="1.976" gradientUnits="userSpaceOnUse"><stop stop-color="#F9F9F9"/><stop offset="1" stop-color="#fff"/></linearGradient><filter id="filter0_d" x="1.458" y=".976" width="21.233" height="21.318" filterUnits="userSpaceOnUse" color-interpolation-filters="sRGB"><feFlood flood-opacity="0" result="BackgroundImageFix"/><feColorMatrix in="SourceAlpha" values="0 0 0 0 0 0 0 0 0 0 0 0 0 0 0 0 0 0 127 0"/><feOffset/><feGaussianBlur stdDeviation=".5"/><feColorMatrix values="0 0 0 0 0 0 0 0 0 0 0 0 0 0 0 0 0 0 0.25 0"/><feBlend in2="BackgroundImageFix" result="effect1_dropShadow"/><feBlend in="SourceGraphic" in2="effect1_dropShadow" result="shape"/></filter></defs></svg>