<svg width="20" height="20" fill="none" xmlns="http://www.w3.org/2000/svg"><g opacity=".5"><g filter="url(#filter0_d)"><path d="M2.049 17.746l1.133-4.134a7.98 7.98 0 116.915 3.996h-.003a7.974 7.974 0 01-3.813-.971l-4.232 1.109zm4.426-2.554l.242.144a6.624 6.624 0 003.376.924h.002a6.63 6.63 0 10-5.618-3.107l.158.251-.67 2.447 2.51-.659z" fill="#fff"/></g><path d="M2.048 17.746l1.133-4.134a7.98 7.98 0 116.915 3.996h-.004a7.974 7.974 0 01-3.812-.971l-4.232 1.109zm4.426-2.554l.242.144a6.624 6.624 0 003.376.924h.002a6.63 6.63 0 10-5.618-3.107l.158.251-.67 2.447 2.51-.659z" fill="#013F44"/><path fill-rule="evenodd" clip-rule="evenodd" d="M8.102 6.29c-.15-.334-.307-.34-.449-.345-.116-.005-.25-.005-.382-.005a.733.733 0 00-.532.25 2.235 2.235 0 00-.698 1.662c0 .981.715 1.93.814 2.062.1.133 1.38 2.21 3.406 3.01 1.685.664 2.027.533 2.393.5.366-.034 1.18-.483 1.346-.948.13-.298.17-.627.116-.948-.05-.083-.183-.133-.382-.233-.2-.1-1.18-.582-1.363-.649-.182-.067-.315-.1-.448.1s-.515.648-.631.781c-.117.133-.234.15-.434.05a5.452 5.452 0 01-1.603-.99 6.003 6.003 0 01-1.11-1.38c-.116-.2-.012-.307.088-.407.09-.089.2-.233.3-.349.083-.1.15-.213.2-.333a.367.367 0 00-.016-.35c-.05-.099-.438-1.085-.615-1.479z" fill="#013F44"/></g><defs><filter id="filter0_d" x="1.049" y=".647" width="18.028" height="18.099" filterUnits="userSpaceOnUse" color-interpolation-filters="sRGB"><feFlood flood-opacity="0" result="BackgroundImageFix"/><feColorMatrix in="SourceAlpha" values="0 0 0 0 0 0 0 0 0 0 0 0 0 0 0 0 0 0 127 0"/><feOffset/><feGaussianBlur stdDeviation=".5"/><feColorMatrix values="0 0 0 0 0 0 0 0 0 0 0 0 0 0 0 0 0 0 0.25 0"/><feBlend in2="BackgroundImageFix" result="effect1_dropShadow"/><feBlend in="SourceGraphic" in2="effect1_dropShadow" result="shape"/></filter></defs></svg>