<svg width="16" height="16" fill="none" xmlns="http://www.w3.org/2000/svg"><rect width="16" height="16" rx="3" fill="#fff"/><path fill-rule="evenodd" clip-rule="evenodd" d="M8 1c3.875 0 7 3.125 7 7s-3.125 7-7 7c-3.875-.031-7-3.156-7-7 0-3.875 3.125-7 7-7z" fill="#fff"/><path fill-rule="evenodd" clip-rule="evenodd" d="M8 13.187A5.195 5.195 0 012.812 8 5.195 5.195 0 018 2.812 5.195 5.195 0 0113.188 8 5.195 5.195 0 018 13.187z" fill="#ED1C24"/><path fill-rule="evenodd" clip-rule="evenodd" d="M9.844 8.719c0 .563.25.688.812.688h.625v-.438h-.312c-.281 0-.344-.062-.344-.375V7.438h.719V7h-.719v-.875l-.781.125V7h-.5v.438h.5v1.281zm2.094 1.001a4.553 4.553 0 01-3.907 2.155A4.624 4.624 0 014.125 9.72H4.5c.719.875 2.344 1.438 3.563 1.438 1.218 0 2.843-.563 3.562-1.438h.313zm-6.469-.345H6.53l.344-1.469h.062l.313 1.47H8.28l.469-1.938.312-.032V7h-.78l-.407 1.781h-.063l-.437-1.78H6.53l-.406 1.78h-.063l-.437-1.78h-.938v.405L5 7.438l.469 1.937z" fill="#fff"/><path fill-rule="evenodd" clip-rule="evenodd" d="M4.125 6.188a4.553 4.553 0 013.906-2.156c1.656 0 3.094.875 3.906 2.156h-.374C10.842 5.313 9.219 4.75 8 4.75c-1.219 0-2.844.563-3.562 1.438h-.313z" fill="#fff"/><path fill-rule="evenodd" clip-rule="evenodd" d="M8 2.375c3.094 0 5.594 2.5 5.594 5.594 0 3.093-2.5 5.593-5.594 5.593A5.588 5.588 0 012.406 7.97c0-3.063 2.5-5.594 5.594-5.594zM8 1c3.875 0 7 3.125 7 7s-3.125 7-7 7c-3.875-.031-7-3.156-7-7 0-3.875 3.125-7 7-7z" fill="#8DC63F"/></svg>