<svg width="32" height="32" fill="none" xmlns="http://www.w3.org/2000/svg"><path d="M16 6C10.08 6 5.2 10.88 5.2 16.8c0 5.92 4.88 10.8 10.8 10.8 5.92 0 10.8-4.88 10.8-10.8C26.8 10.88 21.92 6 16 6zm4.96 16.72c0 1.68-1.36 3.04-3.04 3.04-.48.24-1.12.24-1.92.24-.8 0-1.44 0-1.92-.24-1.68 0-3.04-1.36-3.04-3.04s1.36-3.04 3.04-3.04h3.84c1.68 0 3.04 1.36 3.04 3.04z" fill="#FFE600" stroke="#013F44" stroke-width="1.5" stroke-miterlimit="10" stroke-linecap="round" stroke-linejoin="round"/><path d="M16 6c3.76 0 4-3.36 1.92-3.84M5.2 18.64c-.24.16-.56.16-.88.16-1.12 0-2.08-.88-2.08-2.08 0-1.2.88-2.08 2.08-2.08.32 0 .64.08.88.16m21.6 3.84c.24.16.56.16.88.16 1.12 0 2.08-.88 2.08-2.08 0-1.2-.88-2.08-2.08-2.08-.32 0-.64.08-.88.16M14.16 16c-1.2 1.2-3.12 1.2-4.32 0m12.32 0c-1.2 1.2-3.12 1.2-4.32 0M16 24a1.28 1.28 0 100-2.56A1.28 1.28 0 0016 24z" stroke="#013F44" stroke-width="1.5" stroke-miterlimit="10" stroke-linecap="round" stroke-linejoin="round"/><path d="M17.2 23.04c.72.4 1.2 1.04 1.2 1.84 0 1.2-1.12 1.2-2.4 1.2-1.28 0-2.4-.08-2.4-1.2 0-.8.48-1.44 1.2-1.84" stroke="#013F44" stroke-width="1.5" stroke-miterlimit="10" stroke-linecap="round" stroke-linejoin="round"/></svg>