<svg width="32" height="32" fill="none" xmlns="http://www.w3.org/2000/svg"><path d="M17.6 16.32h-3.2c-1.28 0-2.24 1.04-2.24 2.24V28h7.68v-9.44c0-1.2-1.04-2.24-2.24-2.24zm-7.28-2.96c1.12 1.12 2.88 1.12 3.92 0 .96-.96 2.56-.96 3.52 0 1.12 1.12 2.88 1.12 3.92 0 .96-.96 2.56-.96 3.52 0l.64.64c2.08 0 3.44-2.24 2.48-4.16L26.88 7.2a3.58 3.58 0 00-3.2-1.92H8.32c-1.36 0-2.56.72-3.2 1.92L3.68 9.84C2.64 11.68 4 14 6.16 14l.64-.64a2.376 2.376 0 013.52 0z" fill="#FFE600" stroke="#013F44" stroke-width="1.5" stroke-miterlimit="10"/><path d="M25.2 13.36c-.96-.96-2.56-.96-3.52 0-1.12 1.12-2.88 1.12-3.92 0-.96-.96-2.56-.96-3.52 0-1.12 1.12-2.88 1.12-3.92 0-.96-.96-2.56-.96-3.52 0l-.64.64v11.52c0 1.36 1.12 2.56 2.56 2.56h14.64c1.36 0 2.56-1.12 2.56-2.56V14l-.72-.64z" stroke="#013F44" stroke-width="1.5" stroke-miterlimit="10"/></svg>