<svg width="32" height="32" fill="none" xmlns="http://www.w3.org/2000/svg"><path d="M15.6 24l-5.92 3.12c-.64.32-1.36-.16-1.2-.88L9.6 19.6c.08-.24-.08-.56-.24-.72l-4.8-4.64c-.48-.48-.24-1.36.48-1.44l6.64-.96c.24 0 .48-.24.64-.48l2.96-6a.842.842 0 011.52 0l2.96 6c.16.24.32.4.64.48l6.64.96c.72.08.96.96.48 1.44l-4.8 4.64c-.16.16-.32.48-.24.72l1.12 6.64c.08.72-.64 1.2-1.2.88l-6-3.12a.727.727 0 00-.8 0z" fill="#FFE600" stroke="#013F44" stroke-width="1.5" stroke-miterlimit="10" stroke-linecap="round" stroke-linejoin="round"/></svg>