<svg width="32" height="32" fill="none" xmlns="http://www.w3.org/2000/svg"><path d="M25.6 15.2c-2.24 1.12-4.4 1.04-6.4 0-2.16 1.04-4.24 1.04-6.4 0-2.16 1.04-4.24 1.04-6.4 0l4.64-12.8h10l4.56 12.8z" fill="#FFE600" stroke="#013F44" stroke-width="1.5" stroke-miterlimit="10" stroke-linecap="round" stroke-linejoin="round"/><path d="M16 22.8c-1.12 0-2-.88-2-2s.88-2 2-2 2 .88 2 2-.88 2-2 2zm6 7.2H10c0-2 1.6-3.6 3.6-3.6h4.8c2 0 3.6 1.6 3.6 3.6zm-6-11.2V16m0 10.4v-3.6m8.8 7.2H7.2" stroke="#013F44" stroke-width="1.5" stroke-miterlimit="10" stroke-linecap="round" stroke-linejoin="round"/></svg>