<svg width="32" height="32" fill="none" xmlns="http://www.w3.org/2000/svg"><path d="M11.76 11.44V7.76c0-.88.72-1.6 1.6-1.6h5.2c.88 0 1.6.72 1.6 1.6v3.68" stroke="#013F44" stroke-width="1.5" stroke-miterlimit="10" stroke-linecap="round" stroke-linejoin="round"/><path d="M26.08 11.44H5.92c-.88 0-1.6.72-1.6 1.6v11.52c0 .88.72 1.6 1.6 1.6h20.16c.88 0 1.6-.72 1.6-1.6V13.04c0-.88-.72-1.6-1.6-1.6zm-7.36 8.48h-5.44V16.4h5.44v3.52z" fill="#FFE600" stroke="#013F44" stroke-width="1.5" stroke-miterlimit="10" stroke-linecap="round" stroke-linejoin="round"/><path d="M27.68 16l-8.96 2.64m-5.44 0L4.32 16" stroke="#013F44" stroke-width="1.5" stroke-miterlimit="10" stroke-linecap="round" stroke-linejoin="round"/></svg>