<svg width="32" height="32" fill="none" xmlns="http://www.w3.org/2000/svg"><path d="M24.975 14h-4.95A2.008 2.008 0 0118 11.992V7.008C18 5.893 18.9 5 20.025 5h4.95C26.1 5 27 5.893 27 7.008v4.91c0 1.19-.9 2.082-2.025 2.082z" fill="#FFE600" stroke="#013F44" stroke-width="1.5" stroke-miterlimit="10" stroke-linecap="round" stroke-linejoin="round"/><path d="M24.975 27h-4.95C18.9 27 18 26.1 18 24.975v-4.95C18 18.9 18.9 18 20.025 18h4.95C26.1 18 27 18.9 27 20.025v4.95C27 26.1 26.1 27 24.975 27zM11.972 14H7.024A2.008 2.008 0 015 11.992V7.008C5 5.893 5.9 5 7.024 5h4.948c1.124 0 2.024.893 2.024 2.008v4.91c.075 1.19-.9 2.082-2.024 2.082z" stroke="#013F44" stroke-width="1.5" stroke-miterlimit="10" stroke-linecap="round" stroke-linejoin="round"/><path d="M11.972 27H7.024C5.9 27 5 26.1 5 24.975v-4.95C5 18.9 5.9 18 7.024 18h4.948c1.124 0 2.024.9 2.024 2.025v4.95C14.07 26.1 13.096 27 11.972 27z" fill="#FFE600" stroke="#013F44" stroke-width="1.5" stroke-miterlimit="10" stroke-linecap="round" stroke-linejoin="round"/></svg>