<svg width="32" height="32" fill="none" xmlns="http://www.w3.org/2000/svg"><path d="M29.6 13.44l-2.72-2.88c-1.92-2-4.16-3.52-6.64-4.56-2.56 2.24-5.12 2.24-7.6 0l-.4.16c-2.24.96-4.32 2.32-6.08 4l-3.44 3.28L7.04 18l2.16-2.24V26.4h14.08V15.76l2.08 2.16 4.24-4.48z" fill="#FFE600" stroke="#013F44" stroke-width="1.5" stroke-miterlimit="10" stroke-linecap="round" stroke-linejoin="round"/><path d="M13.28 13.36c2.8-2.56 4.32-2.08 1.76 1.36-2.56 3.44-3.04 4.88.32 2.56 2.96-2.08 6-3.68 2.16 1.04-3.84 4.72.16 2.56 2.16 1.44" stroke="#013F44" stroke-width="1.5" stroke-miterlimit="10" stroke-linecap="round" stroke-linejoin="round"/></svg>