<svg width="32" height="32" fill="none" xmlns="http://www.w3.org/2000/svg"><path d="M29.346 17.405l-5.854-3.59 3.98-8.898c.547-1.17-.78-2.263-1.872-1.639l-8.508 5.307-3.512-3.902c-.78-.859-2.185-.39-2.263.78l-.39 5.542-7.493 1.17c-1.093.313-1.405 1.874-.39 2.498l5.853 3.59-3.98 8.82c-.547 1.17.78 2.263 1.873 1.639l8.507-5.307 3.512 3.902c.78.859 2.186.39 2.264-.78l.39-5.542 7.493-1.17c1.092-.235 1.405-1.796.39-2.42z" fill="#FF3030"/><path d="M16 21.776a5.776 5.776 0 100-11.552 5.776 5.776 0 000 11.552z" fill="#FFE600" stroke="#fff" stroke-width="1.5" stroke-miterlimit="10"/></svg>