<svg width="32" height="32" fill="none" xmlns="http://www.w3.org/2000/svg"><path d="M28.4 14.8v12h-8v-12h8z" fill="#FFE600" stroke="#013F44" stroke-width="1.5" stroke-miterlimit="10" stroke-linecap="round" stroke-linejoin="round"/><path d="M2 14.8l10-10 10 10" stroke="#013F44" stroke-width="1.5" stroke-miterlimit="10" stroke-linecap="round" stroke-linejoin="round"/><path d="M22 14.8h8V8.4H15.6" stroke="#013F44" stroke-width="1.5" stroke-miterlimit="10" stroke-linecap="round" stroke-linejoin="round"/><path d="M3.6 13.2v13.6h16.8V13.2L12 4.8l-8.4 8.4z" stroke="#013F44" stroke-width="1.5" stroke-miterlimit="10" stroke-linecap="round" stroke-linejoin="round"/><path d="M12 4.8l-8.4 8.4v13.6h6V18h4.8v8.8h6V13.2L12 4.8zm0 9.6c-1.12 0-2-.88-2-2s.88-2 2-2 2 .88 2 2-.88 2-2 2z" fill="#FFE600" stroke="#013F44" stroke-width="1.5" stroke-miterlimit="10" stroke-linecap="round" stroke-linejoin="round"/></svg>