<svg width="32" height="32" fill="none" xmlns="http://www.w3.org/2000/svg"><path d="M16 24.32c5.877 0 10.64-2.292 10.64-5.12 0-2.828-4.763-5.12-10.64-5.12-5.876 0-10.64 2.292-10.64 5.12 0 2.828 4.764 5.12 10.64 5.12z" stroke="#013F44" stroke-width="1.5" stroke-miterlimit="10"/><path d="M16 22.4c3.668 0 6.64-1.433 6.64-3.2 0-1.767-2.973-3.2-6.64-3.2s-6.64 1.433-6.64 3.2c0 1.767 2.973 3.2 6.64 3.2z" fill="#FFE600" stroke="#013F44" stroke-width="1.5" stroke-miterlimit="10"/><path d="M16 24.32c-5.92 0-10.64-2.32-10.64-5.12v3.84c0 2.8 4.8 5.12 10.64 5.12 5.92 0 10.64-2.32 10.64-5.12V19.2c0 2.88-4.72 5.12-10.64 5.12z" fill="#FFE600" stroke="#013F44" stroke-width="1.5" stroke-miterlimit="10"/><path d="M16 14.08c5.877 0 10.64-2.292 10.64-5.12 0-2.828-4.763-5.12-10.64-5.12-5.876 0-10.64 2.292-10.64 5.12 0 2.828 4.764 5.12 10.64 5.12z" stroke="#013F44" stroke-width="1.5" stroke-miterlimit="10"/></svg>